<svg width="120" height="120" viewBox="0 0 120 120" fill="none" xmlns="http://www.w3.org/2000/svg">
  <!-- Background Circle (transparent) -->
  <circle cx="60" cy="60" r="55" fill="rgba(255,255,255,0.1)" stroke="rgba(255,255,255,0.2)" stroke-width="2"/>
  
  <!-- Pi Symbol -->
  <g fill="#FFFFFF">
    <!-- Horizontal line of Pi -->
    <rect x="25" y="35" width="70" height="6" rx="3"/>
    <!-- Left vertical line of Pi -->
    <rect x="30" y="35" width="6" height="45" rx="3"/>
    <!-- Right vertical line of Pi -->
    <rect x="84" y="35" width="6" height="45" rx="3"/>
  </g>
  
  <!-- Tetris Blocks -->
  <g fill="rgba(255,255,255,0.9)">
    <!-- T-piece (rotated) -->
    <rect x="45" y="50" width="8" height="8" rx="1"/>
    <rect x="37" y="58" width="8" height="8" rx="1"/>
    <rect x="45" y="58" width="8" height="8" rx="1"/>
    <rect x="53" y="58" width="8" height="8" rx="1"/>
  </g>
  
  <g fill="rgba(255,255,255,0.8)">
    <!-- L-piece -->
    <rect x="67" y="50" width="6" height="6" rx="1"/>
    <rect x="67" y="56" width="6" height="6" rx="1"/>
    <rect x="67" y="62" width="6" height="6" rx="1"/>
    <rect x="73" y="62" width="6" height="6" rx="1"/>
  </g>
  
  <!-- Circuit pattern decoration -->
  <g stroke="rgba(255,255,255,0.4)" stroke-width="1.5" fill="none">
    <circle cx="20" cy="25" r="3"/>
    <circle cx="100" cy="25" r="3"/>
    <circle cx="20" cy="95" r="3"/>
    <circle cx="100" cy="95" r="3"/>
    <path d="M23 25 L25 25 L25 23" stroke-linecap="round"/>
    <path d="M97 25 L95 25 L95 23" stroke-linecap="round"/>
    <path d="M23 95 L25 95 L25 97" stroke-linecap="round"/>
    <path d="M97 95 L95 95 L95 97" stroke-linecap="round"/>
  </g>
</svg>